<svg id="Logo" xmlns="http://www.w3.org/2000/svg" xmlns:xlink="http://www.w3.org/1999/xlink" width="202" height="43.386" viewBox="0 0 202 43.386">
  <defs>
    <linearGradient id="linear-gradient" x1="0.842" y1="0.026" x2="0.402" y2="0.984" gradientUnits="objectBoundingBox">
      <stop offset="0" stop-color="#ee303c"/>
      <stop offset="1" stop-color="#9e0621"/>
    </linearGradient>
    <linearGradient id="linear-gradient-2" x1="0.654" y1="0.068" x2="0.358" y2="0.946" gradientUnits="objectBoundingBox">
      <stop offset="0" stop-color="#58b0e3"/>
      <stop offset="1" stop-color="#005287"/>
    </linearGradient>
  </defs>
  <g id="Group_2" data-name="Group 2">
    <path id="Path_1" data-name="Path 1" d="M439.338,196.31v19.918c-.007.144.007.284,0,.424a.747.747,0,0,0,0,.09,14.074,14.074,0,0,1-5.889,10.173,12.484,12.484,0,0,1-11.926,1.9c-.909-.374-1.089-.553-1.639-.773-.2-.115-.4-.23-.6-.352a5.025,5.025,0,0,1-.809-.564c-.359-.287-.625-.514-1.024-.873a5.813,5.813,0,0,1-.514-.507,12.433,12.433,0,0,1-1.34-1.692c3.8-1.624,8.326-6.457,8.372-12.192v-20.04c-.04-1.25-.269-4.258,2.526-4.258a6.52,6.52,0,0,1,2.077.4l6.234,1.775C438.17,190.726,439.338,190.949,439.338,196.31Z" transform="translate(-395.703 -187.56)" fill="url(#linear-gradient)"/>
    <path id="Path_2" data-name="Path 2" d="M384.768,231.138c-.593-.158-10.2-2.742-13.691-3.787l-.133-.04c-.025-.007-.05-.018-.075-.025-.331-.1-.578-.18-.715-.226v-.011a15.183,15.183,0,0,1-9.921-14.844V191.712c0-2.221,0-3.852,2.088-3.852a7.672,7.672,0,0,1,1.876.291l7.294,2.059c3.026,1.146,4.175.945,4.1,5.4v20.971A15.24,15.24,0,0,0,384.768,231.138Z" transform="translate(-360.229 -187.752)" fill="url(#linear-gradient-2)"/>
  </g>
  <g id="Group_1" data-name="Group 1" transform="translate(54.631 4.559)">
    <path id="Path_4" data-name="Path 4" d="M317.569,338.823h0a3.315,3.315,0,1,0,3.015,3.384,3.4,3.4,0,0,0-3.015-3.384m-7.759-6.742h0a5.062,5.062,0,0,1,5.011-5.059h10.431v3.908h-9.392a1.258,1.258,0,0,0-1.231,1.247v3.307c2.7-.694,5.217-.631,7.45.817a6.91,6.91,0,0,1,3.173,5.978c-.16,4.3-3.606,7.03-7.733,7.031-4.725,0-7.64-2.36-7.7-7.058Zm41.378-4.637h0v14.889a7.357,7.357,0,0,0,14.7,0v-4.463h-4.868v4.451c0,2.79-1.4,3.148-2.481,3.161-1.085-.012-2.482-.371-2.482-3.161,0-1.73-.006-13.022-.008-14.877Zm-50.657,4.737h0a1.263,1.263,0,0,0-2.525,0v3.457h-4.818v-3.457a1.248,1.248,0,0,0-1.218-1.249H289.03v-3.908h3.095a6.726,6.726,0,0,1,3.806,1.1,5.962,5.962,0,0,1,3.71-1.1,5.638,5.638,0,0,1,5.755,5.613v9.618a7.357,7.357,0,0,1-14.7,0v-2.479h4.869c0,.41,0,2.028,0,2.467,0,2.789,1.4,3.15,2.481,3.162,1.085-.012,2.48-.372,2.48-3.162,0-3.04.017-5.581.006-10.06m117.937,16.761h0V336.895a13.477,13.477,0,0,1,1.029-5.63,6.821,6.821,0,0,1,2.958-3.235,9.641,9.641,0,0,1,4.662-1.037,10.192,10.192,0,0,1,4.843,1.069,7.124,7.124,0,0,1,3.081,3.259,12.581,12.581,0,0,1,1.079,5.509v12.112h-4.869V336.51a7.208,7.208,0,0,0-1.024-4.235,3.427,3.427,0,0,0-2.949-1.373,3.333,3.333,0,0,0-2.889,1.41,7.23,7.23,0,0,0-1.019,4.2v12.431Zm-43.9-13.654h0c0-1.228.112-2.816,1.1-3.709a2.36,2.36,0,0,1,1.563-.678,1.913,1.913,0,0,1,1.409.493c1.324,1.1,1.237,2.88,1.237,4.5v4.865h4.87v-4.865c0-1.622-.089-3.4,1.235-4.5a1.954,1.954,0,0,1,1.48-.491,2.349,2.349,0,0,1,1.491.676c.983.893,1.094,2.481,1.1,3.709l.011,13.654h4.857V337.283c0-2.654-.113-5.567-1.908-7.687a7.3,7.3,0,0,0-10.7-.5,7.306,7.306,0,0,0-10.7.5c-1.793,2.12-1.907,5.032-1.907,7.687v11.657h4.857Zm-45.655,13.654h0V336.895a13.468,13.468,0,0,1,1.03-5.63,6.821,6.821,0,0,1,2.957-3.235,9.648,9.648,0,0,1,4.663-1.037,10.2,10.2,0,0,1,4.844,1.069,7.12,7.12,0,0,1,3.081,3.259,12.558,12.558,0,0,1,1.079,5.509v12.112H341.7V336.51a7.183,7.183,0,0,0-1.026-4.235,3.421,3.421,0,0,0-2.947-1.373,3.333,3.333,0,0,0-2.889,1.41,7.248,7.248,0,0,0-1.019,4.2v12.431ZM406.876,338.8h0a3.314,3.314,0,1,0,3.016,3.385,3.407,3.407,0,0,0-3.016-3.385m-7.759-6.744a5.062,5.062,0,0,1,5.011-5.059H414.56V330.9h-9.393a1.257,1.257,0,0,0-1.23,1.25v3.306c2.7-.693,5.218-.63,7.451.818a6.905,6.905,0,0,1,3.173,5.978c-.159,4.3-3.606,7.031-7.734,7.031-4.725,0-7.64-2.36-7.7-7.059Z" transform="translate(-288.993 -326.993)" fill="#006a9f" fill-rule="evenodd"/>
    <path id="Path_5" data-name="Path 5" d="M507.825,383.885a2.954,2.954,0,0,0-.4-1.137q-.075-.117-.159-.225a5.151,5.151,0,0,0-1.02-.96l-.051-.036-.626-.467c-.058-.045-.119-.092-.176-.138a.732.732,0,0,1-.317-.467,1.562,1.562,0,0,1-.023-.288V379.4h-1.681v.876l0,.15a1.943,1.943,0,0,0,.787,1.617c.356.291.759.51,1.126.786l.088.064.084.067a1.633,1.633,0,0,1,.619.823l.031.095.025.1A2.165,2.165,0,0,1,506,385.5a.948.948,0,0,1-1.165.566l-.09-.027a1.7,1.7,0,0,1-.883-.868l-.116-.205-1.467.887.093.182a3.324,3.324,0,0,0,.933,1.167l.08.061a2.487,2.487,0,0,0,1.348.493l.108.008a2.96,2.96,0,0,0,1.222-.151,2.534,2.534,0,0,0,1.624-1.752l.04-.132.036-.135a4.07,4.07,0,0,0,.078-1.634Z" transform="translate(-383.184 -350.14)" fill="#006a9f"/>
    <path id="Path_6" data-name="Path 6" d="M494.5,382.407a1.349,1.349,0,0,0-.408-1.275,2.225,2.225,0,0,0-.5-.331c-.636-.324-1.383-.363-2.005-.714l-.036-.021a.233.233,0,0,1-.1-.233v-.506H489.8v.509a1.418,1.418,0,0,0,.252.86,2.278,2.278,0,0,0,1.064.712c.268.106.544.185.817.28l.078.024a3.533,3.533,0,0,1,.674.288.364.364,0,0,1,.029.614.828.828,0,0,1-.571.148h-.923v1.386h.928a.767.767,0,0,1,.189.022.7.7,0,0,1,.471.482,1.123,1.123,0,0,1,.036.806,1.008,1.008,0,0,1-.626.681,1.215,1.215,0,0,1-.788.042.994.994,0,0,1-.65-.505,1.943,1.943,0,0,1-.208-.663l-.006-.032h-1.612l0,.04a4.306,4.306,0,0,0,.111.768,2.6,2.6,0,0,0,.794,1.347,2.547,2.547,0,0,0,1.677.644,2.9,2.9,0,0,0,1.754-.436,2.586,2.586,0,0,0,.969-1.089,2.4,2.4,0,0,0,.257-1.2,2.325,2.325,0,0,0-.322-1.084,2.428,2.428,0,0,0-.348-.457,2.107,2.107,0,0,0,.328-.329,1.58,1.58,0,0,0,.323-.779" transform="translate(-377.299 -350.109)" fill="#006a9f"/>
    <path id="Path_7" data-name="Path 7" d="M461.013,380a2.536,2.536,0,0,0-3.619.191,3.794,3.794,0,0,0-.633,2.536v2.564a5.749,5.749,0,0,0,.314,1.711l.022.069c.068.218.148.431.235.643l.03.071h1.807l-.057-.106c-.1-.2-.2-.4-.287-.6l-.049-.114a4.241,4.241,0,0,1-.353-1.652v-.75h0V382.3a1.607,1.607,0,0,1,.348-1.188.809.809,0,0,1,1.016-.059,1.755,1.755,0,0,1,.392,1.445v1.4h1.664v-1.4a1.758,1.758,0,0,1,.39-1.445.811.811,0,0,1,1.018.059,1.614,1.614,0,0,1,.347,1.188v3.012a4.274,4.274,0,0,1-.356,1.652l-.048.114c-.086.2-.183.4-.288.6l-.058.106h1.808l.031-.071c.087-.212.166-.425.233-.643l.023-.069a5.662,5.662,0,0,0,.314-1.711v-.728h.006v-1.836a3.792,3.792,0,0,0-.634-2.536,2.536,2.536,0,0,0-3.619-.191" transform="translate(-363.081 -350.109)" fill="#006a9f"/>
    <path id="Path_8" data-name="Path 8" d="M448.069,383.647a2.082,2.082,0,0,0-.819-.521l-.046-.016c.049-.026.1-.055.142-.084a1.966,1.966,0,0,0,.786-.938,1.887,1.887,0,0,0,.05-1.182,2.048,2.048,0,0,0-.618-1,2.253,2.253,0,0,0-.871-.52,2.886,2.886,0,0,0-.912-.121h-.037v1.581h.08a.72.72,0,0,1,.716.422.733.733,0,0,1-.126.766,1,1,0,0,1-.5.336,3.027,3.027,0,0,1-.675.111l-.033,0V383.9h.037a3.159,3.159,0,0,1,.793.1,1.513,1.513,0,0,1,.757.464,1.059,1.059,0,0,1,.122,1.213,1.089,1.089,0,0,1-.335.375,1.277,1.277,0,0,1-1.107.161,1.061,1.061,0,0,1-.616-.489,1.61,1.61,0,0,1-.2-.556l-.021-.125h-1.62l0,.041a3.412,3.412,0,0,0,.355,1.366,2.475,2.475,0,0,0,1.453,1.2,3.412,3.412,0,0,0,1.408.112,2.887,2.887,0,0,0,1.348-.518,2.6,2.6,0,0,0,.871-1.071,2.493,2.493,0,0,0,.145-1.554,2,2,0,0,0-.534-.972" transform="translate(-357.011 -350.082)" fill="#006a9f"/>
    <path id="Path_9" data-name="Path 9" d="M479.67,385.919h0a.88.88,0,0,1-1.359.115,1.248,1.248,0,0,1-.226-.826,1.368,1.368,0,0,1,.226-.832.861.861,0,0,1,1.276-.021,1.356,1.356,0,0,1,.228.854,1.506,1.506,0,0,1-.145.711m.659-6.24a2.917,2.917,0,0,0-3.076.18,2.081,2.081,0,0,0-.6.686,1.793,1.793,0,0,0-.171.44,1.96,1.96,0,0,0-.061.488v.871h1.663v-.737a.875.875,0,0,1,.15-.486.941.941,0,0,1,1.431-.167.532.532,0,0,1,.143.363v1.615a2.526,2.526,0,0,0-1.879-.012,2.358,2.358,0,0,0-1.319,1.328,2.738,2.738,0,0,0-.19,1.021,2.356,2.356,0,0,0,1.552,2.357,2.751,2.751,0,0,0,.932.153,2.707,2.707,0,0,0,1.367-.334,2.235,2.235,0,0,0,1.058-1.512,3.062,3.062,0,0,0,.068-.658v-3.911a1.668,1.668,0,0,0-.4-1.121,2.831,2.831,0,0,0-.672-.564" transform="translate(-371.765 -350.107)" fill="#006a9f"/>
    <path id="Path_10" data-name="Path 10" d="M534.279,380.281a2.6,2.6,0,0,0-.936-.682,3.147,3.147,0,0,0-1.226-.22,2.981,2.981,0,0,0-1.6.422,2.46,2.46,0,0,0-.975,1.06,5.814,5.814,0,0,0-.291,2.131v2.285a5.61,5.61,0,0,0,.315,1.712l.021.069c.069.219.148.431.236.644l.029.069h1.81l-.057-.1a6.558,6.558,0,0,1-.289-.6l-.047-.114a4.225,4.225,0,0,1-.357-1.653v-.751h0v-1.979a2.891,2.891,0,0,1,.119-.972.954.954,0,0,1,.39-.448,1.377,1.377,0,0,1,1.362.018,1,1,0,0,1,.4.476,3.817,3.817,0,0,1,.115,1.122V385.3a4.2,4.2,0,0,1-.354,1.653l-.048.114c-.085.2-.184.4-.289.6l-.059.1h1.81l.029-.069c.087-.213.167-.424.234-.644l.022-.069a5.661,5.661,0,0,0,.315-1.712v-.729h0v-1.557a7.314,7.314,0,0,0-.141-1.754,2.573,2.573,0,0,0-.549-.956" transform="translate(-395.1 -350.132)" fill="#006a9f"/>
    <path id="Path_11" data-name="Path 11" d="M518.635,386.294h0c-.595-.026-.828-.538-.857-1.065-.032-.579.214-1.136.87-1.132.7.006.878.582.859,1.18-.016.509-.294,1.042-.872,1.017m2.2-2.369a2.149,2.149,0,0,0-.757-.849,2.643,2.643,0,0,0-2.3-.285v-1.029c0-.405.336-.47.675-.414a4.033,4.033,0,0,0,1.162.1,1.189,1.189,0,0,0,1.138-1.193V379.4h-1.363v.2c-.083.178-.3.183-.472.151-.267-.05-.537-.135-.8-.169a1.687,1.687,0,0,0-1.74.778,1.508,1.508,0,0,0-.258.82l0,.055v1.309h.005v2.607a3.2,3.2,0,0,0,.213,1.206,2.15,2.15,0,0,0,.86,1.056,2.577,2.577,0,0,0,1.433.356,2.542,2.542,0,0,0,1.246-.277l.069-.037.072-.042a2.045,2.045,0,0,0,.73-.735,2.659,2.659,0,0,0,.4-1.37v-.044a2.694,2.694,0,0,0-.272-1.282Z" transform="translate(-389.296 -350.14)" fill="#006a9f"/>
    <path id="Path_12" data-name="Path 12" d="M548.44,383.961l-.011-.076a2.982,2.982,0,0,0-.4-1.137c-.049-.078-.1-.153-.159-.225a5.153,5.153,0,0,0-1.02-.961l-.05-.036-.625-.466c-.06-.045-.12-.092-.178-.139a.738.738,0,0,1-.317-.467,1.607,1.607,0,0,1-.022-.287V379.4h-1.681v.875l0,.15a1.941,1.941,0,0,0,.788,1.617c.354.291.759.51,1.126.785l.087.064.086.066a1.659,1.659,0,0,1,.619.823l.03.095.025.1a2.164,2.164,0,0,1-.135,1.53.95.95,0,0,1-1.167.565l-.089-.027a1.7,1.7,0,0,1-.884-.869l-.116-.2-1.467.887.094.182a3.293,3.293,0,0,0,.931,1.167l.082.061a2.5,2.5,0,0,0,1.346.493l.108.007a2.935,2.935,0,0,0,1.221-.151,2.534,2.534,0,0,0,1.626-1.752l.038-.132.037-.136a4.08,4.08,0,0,0,.079-1.634" transform="translate(-401.119 -350.141)" fill="#006a9f"/>
    <path id="Path_13" data-name="Path 13" d="M293.812,384.508a1.465,1.465,0,0,0-.418-.765l-.027-.025-.165-.158c-.1-.092-.026-.179.031-.267l.413-.663h-1.636l-.075.043a.888.888,0,0,0-.335.453,1.036,1.036,0,0,0,.16,1.131l.15.157a1.422,1.422,0,0,1,.252.256l.014.03a1,1,0,0,1,.1.358c.063.561-.151,1.279-.837,1.249a.8.8,0,0,1-.752-.586,1.312,1.312,0,0,1-.08-.446V379.51h-1.639v5.774a2.425,2.425,0,0,0,.025.3,2.984,2.984,0,0,0,.184.781,2.094,2.094,0,0,0,.842,1.037,2.527,2.527,0,0,0,1.4.351,2.5,2.5,0,0,0,1.225-.274l.068-.036.07-.041a2.049,2.049,0,0,0,.716-.721,2.593,2.593,0,0,0,.379-1.212h.006l0-.033a3.042,3.042,0,0,0-.061-.879Z" transform="translate(-288.964 -350.19)" fill="#006a9f"/>
    <path id="Path_14" data-name="Path 14" d="M318.12,381.506h0c.053-.219.182-.609.414-.692a1,1,0,0,1,1.148.249,2.206,2.206,0,0,1,.182,1.631.823.823,0,0,1-.768.662.8.8,0,0,1-.926-.534,2.7,2.7,0,0,1-.049-1.317m-2.809-.44c.327-.522.864-.257,1.055.231a1.7,1.7,0,0,1,.159.64,2.834,2.834,0,0,0,.617,2,2.009,2.009,0,0,0,.772.462,3.7,3.7,0,0,0,2.3-.055,1.808,1.808,0,0,0,.892-.8,3.535,3.535,0,0,0,.144-2.67,2.008,2.008,0,0,0-.545-.806,2.147,2.147,0,0,0-.365-.263,2.8,2.8,0,0,0-1.363-.3,2.4,2.4,0,0,0-1.812.687,2.657,2.657,0,0,0-.538-.4,1.953,1.953,0,0,0-.974-.286,1.864,1.864,0,0,0-1.214.4,2.4,2.4,0,0,0-.711,1,3.426,3.426,0,0,0-.222,1.239,3.194,3.194,0,0,0,.062.622c.022.107.049.213.082.318s.078.235.121.35a4.053,4.053,0,0,0,.629,1.177h-.45v1.224h.036c.17,0,.341,0,.512.005s.323,0,.485.007c.568.014,1.136.03,1.7.092a7.442,7.442,0,0,1,1.3.255,2.359,2.359,0,0,1,1.328.851,2.472,2.472,0,0,1,.289.681l.009.025h1.7l-.016-.046a6.7,6.7,0,0,0-.3-.791,3.015,3.015,0,0,0-1.364-1.478,8.774,8.774,0,0,0-2.046-.669,4.7,4.7,0,0,1-1.832-.822,1.635,1.635,0,0,1-.47-.657,2.632,2.632,0,0,1-.185-1.04,4.9,4.9,0,0,1,.026-.543,1.6,1.6,0,0,1,.188-.645" transform="translate(-299.804 -350.188)" fill="#006a9f"/>
    <path id="Path_15" data-name="Path 15" d="M381.768,383.162a2.045,2.045,0,0,0,.77-.675,1.771,1.771,0,0,0-.034-1.819,2.2,2.2,0,0,0-.587-.7,2.359,2.359,0,0,0-.779-.394,2.643,2.643,0,0,0-1.75.079,2.1,2.1,0,0,0-1.04.845,1.983,1.983,0,0,0-.322.8,2.668,2.668,0,0,0-.034.307c0,.171,0,.343,0,.514v.036h1.531v-.036a3.725,3.725,0,0,1,.006-.517.646.646,0,0,1,.052-.177.816.816,0,0,1,.416-.4.771.771,0,0,1,.686-.017.733.733,0,0,1,.02,1.4,2.473,2.473,0,0,1-.789.165l-.033,0v1.357h.036a2.183,2.183,0,0,1,1.32.373,1.09,1.09,0,0,1,.45.879,1.078,1.078,0,0,1-.334.8,1.254,1.254,0,0,1-1.65.041,1.5,1.5,0,0,1-.414-.892l0-.029h-1.551l0,.037a2.783,2.783,0,0,0,.8,1.916,2.965,2.965,0,0,0,3.906-.042,2.417,2.417,0,0,0,.789-1.827,2.066,2.066,0,0,0-.409-1.278,2.144,2.144,0,0,0-1.057-.735" transform="translate(-328.174 -350.167)" fill="#006a9f"/>
    <path id="Path_16" data-name="Path 16" d="M368.075,381.757l0-.08-.008-.08-.01-.077-.013-.081-.013-.077-.017-.078-.019-.077-.02-.076-.025-.078-.027-.074-.026-.075-.032-.074-.031-.073-.035-.074-.036-.072-.039-.071-.041-.068-.043-.068-.045-.063-.047-.064-.049-.061-.051-.06-.054-.055-.055-.056-.055-.053-.06-.051-.061-.048-.063-.048-.066-.046-.067-.042-.069-.041-.07-.038-.073-.036-.071-.031-.072-.032-.074-.027-.073-.026-.076-.025-.112-.028-.117-.024-.114-.018-.121-.013-.119-.008-.121,0-.119.005-.12.01-.12.016-.117.02-.116.026-.117.032-.113.037-.112.042-.108.05-.1.054-.08.044-.078.047-.075.05-.072.054-.07.053-.066.06-.029.026-.029-.028-.071-.057-.07-.055-.072-.051-.074-.05-.077-.047-.08-.044-.105-.054-.11-.047-.111-.042-.113-.036-.114-.034-.117-.026-.117-.021-.119-.015-.12-.011-.119-.005h-.119l-.12.007-.116.012-.117.017-.115.021-.113.027-.075.022-.074.024-.07.026-.072.029-.071.031-.07.032-.068.037-.07.039-.13.085-.123.093-.116.1-.108.111-.1.118-.092.126-.085.135-.079.141-.035.074-.035.074-.031.076-.029.077-.027.078-.023.08-.022.079-.021.083-.015.083-.017.083-.013.085-.01.087-.008.087,0,.088,0,.089v.178l0,.085.005.087.008.086.009.084.008.087.013.085.013.084.016.087.018.084.02.085.021.086.024.084.025.085.026.083.028.085.031.085.032.087.035.082.033.082.036.079.036.076.036.075.039.074.038.071.041.069.042.07.045.067.044.067.047.064.048.065.023.028h-.609v1.41h.231l.281,0h.181l.18,0,.176,0,.172.005.17,0,.166.007.163.006.16.006.155.009.3.017.152.01.145.012.14.011.136.013.133.012.13.013.126.016.125.014.118.018.118.016.115.017.108.016.108.02.1.021.1.019.1.021.095.022.09.022.085.024.078.02.074.023.07.023.068.025.063.026.062.026.061.029.056.028.05.03.052.028.046.032.044.032.043.034.04.034.035.035.036.037.033.04.031.044.03.045.03.045.025.05.022.049.022.055.019.055.018.058.016.06.012.064.01.065.007.067.007.071,0,.074.006.211h1.642l0-.2V387.5l0-.063-.005-.064,0-.06-.008-.06-.008-.061-.008-.058-.01-.058-.011-.056-.013-.055-.014-.056-.015-.054-.016-.052-.017-.051-.019-.052-.042-.1-.045-.1-.054-.1-.056-.095-.062-.1-.067-.093-.072-.093-.078-.09-.068-.076-.073-.074-.071-.07-.077-.072-.078-.069-.08-.066-.08-.064-.085-.064-.105-.076-.106-.066-.108-.065-.108-.058-.108-.054-.109-.047-.109-.045-.111-.039-.111-.036-.109-.033-.107-.03-.11-.027-.111-.026-.107-.025-.109-.021-.108-.022-.108-.02-.216-.037-.213-.041-.1-.019-.1-.023-.105-.024-.1-.026-.1-.027-.1-.03-.1-.033-.1-.036-.1-.04-.1-.042-.1-.048-.1-.051-.093-.056-.089-.061-.086-.067-.083-.072-.079-.077-.078-.082-.076-.089-.072-.09-.071-.093-.064-.1-.061-.1-.057-.1-.051-.107-.047-.109-.045-.113-.038-.113-.036-.115-.028-.118-.026-.12-.017-.118-.014-.12-.008-.118,0-.12,0-.069.006-.072.008-.069.012-.069.016-.07.018-.068.024-.069.023-.065.028-.065.03-.063.034-.058.037-.058.039-.055.041-.048.044-.047.045-.042.041-.03.043-.026.045-.023.047-.019.051-.014.05-.011.052-.008.054,0h.051l.054,0,.054.009.049.014.052.016.047.02.047.023.042.025.047.037.046.044.041.05.037.055.032.06.031.068.027.069.023.073.02.074.018.078.013.078.01.08.009.079.006.077,0,.078,0,.074v1.124h1.64v-1.207l0-.075,0-.074.007-.071.006-.07.01-.065.011-.063.012-.059.014-.055.016-.054.016-.051.021-.05.021-.047.022-.045.025-.041.024-.036.052-.061.058-.051.064-.044.07-.036.075-.026.079-.02.08-.011.081,0,.081.007.081.016.076.024.073.031.066.041.06.049.056.056.048.068.03.045.03.05.027.054.027.051.023.053.022.054.019.056.02.054.013.057.015.056.011.058.007.059.006.06v.123l0,.063-.013.117-.013.113-.014.1-.017.1-.019.09-.023.087-.027.08-.029.078-.033.073-.039.075-.044.07-.049.073-.056.07-.065.072-.069.075-.32.312h1.953l.1-.146.055-.091.052-.094.049-.1.042-.1.039-.1.036-.1.031-.1.027-.1.022-.106.02-.107.027-.214.009-.11,0-.108,0-.109v-.082Z" transform="translate(-320.363 -350.145)" fill="#006a9f"/>
    <path id="Path_17" data-name="Path 17" d="M306.2,383.945a2.913,2.913,0,0,0-.4-1.117,2.664,2.664,0,0,0-.157-.22,4.9,4.9,0,0,0-1-.942l-.048-.036-.615-.458c-.059-.042-.116-.087-.172-.135a.723.723,0,0,1-.31-.458,1.609,1.609,0,0,1-.024-.28v-.755h-1.647v.86l0,.147a1.9,1.9,0,0,0,.774,1.584c.347.285.743.5,1.1.77l.086.064.085.066a1.614,1.614,0,0,1,.606.807l.029.094.024.095a2.121,2.121,0,0,1-.132,1.5.929.929,0,0,1-1.143.557l-.087-.03a1.652,1.652,0,0,1-.866-.849l-.116-.2-1.439.87.092.179a3.261,3.261,0,0,0,.916,1.144l.08.06a2.449,2.449,0,0,0,1.32.482l.106.009a2.847,2.847,0,0,0,1.2-.15,2.477,2.477,0,0,0,1.594-1.718l.04-.129.034-.135a3.965,3.965,0,0,0,.077-1.6Z" transform="translate(-294.172 -350.204)" fill="#006a9f"/>
    <path id="Path_18" data-name="Path 18" d="M395.512,380.507a2.551,2.551,0,0,0-1.437-.923,2.26,2.26,0,0,0-1.737.359,2.414,2.414,0,0,0-.731.77,2.213,2.213,0,0,0-.31,1.147v.288h1.572l0-.336a.749.749,0,0,1,.294-.536.651.651,0,0,1,.918,0,.942.942,0,0,1,.268.414.539.539,0,0,1,.029.182v3.383a.988.988,0,0,1-.309.737l-.046.04a.694.694,0,0,1-1.026-.08,1.28,1.28,0,0,1-.33-.947l0-.054H391.1v.036a2.821,2.821,0,0,0,.105.784,2.866,2.866,0,0,0,1.4,1.761,2,2,0,0,0,.528.187,2.088,2.088,0,0,0,1.119-.092,2.564,2.564,0,0,0,1.466-1.309,2.359,2.359,0,0,0,.238-1.058v-3.4c0-.064,0-.127-.008-.193a2.137,2.137,0,0,0-.435-1.161" transform="translate(-334.076 -350.203)" fill="#006a9f"/>
    <path id="Path_19" data-name="Path 19" d="M335.97,383.945a2.915,2.915,0,0,0-.4-1.117,2.189,2.189,0,0,0-.156-.22,4.924,4.924,0,0,0-1-.942l-.049-.036-.613-.458a1.855,1.855,0,0,1-.172-.135.714.714,0,0,1-.31-.458,1.46,1.46,0,0,1-.024-.28v-.755H331.6v.86l.005.147a1.9,1.9,0,0,0,.771,1.584c.349.285.745.5,1.1.77l.085.064.083.066a1.609,1.609,0,0,1,.608.807l.03.094.023.095a2.12,2.12,0,0,1-.132,1.5.929.929,0,0,1-1.143.557l-.087-.03a1.648,1.648,0,0,1-.866-.849l-.115-.2-1.44.87.092.179a3.272,3.272,0,0,0,.914,1.144l.081.06a2.427,2.427,0,0,0,1.321.482l.1.009a2.85,2.85,0,0,0,1.2-.15,2.481,2.481,0,0,0,1.594-1.718l.041-.129.034-.135a3.975,3.975,0,0,0,.077-1.6Z" transform="translate(-307.322 -350.204)" fill="#006a9f"/>
    <path id="Path_20" data-name="Path 20" d="M347.6,386.4h0a1.174,1.174,0,1,1,1.283-1.17,1.233,1.233,0,0,1-1.283,1.17m-2.89-4.018h0a.871.871,0,1,1,.744-.861.813.813,0,0,1-.744.861m5.323,1.551a2.178,2.178,0,0,0-.891-.817,2.771,2.771,0,0,0-1.241-.309,3.162,3.162,0,0,0-.966.127c-.05.014-.1.032-.148.049.041-.148.084-.3.113-.452a4.89,4.89,0,0,0,.07-.609l0-.031a3.68,3.68,0,0,0-.064-.927,1.765,1.765,0,0,0-1.644-1.558,3.389,3.389,0,0,0-1.008-.011,2.293,2.293,0,0,0-.882.309,1.951,1.951,0,0,0-.6.567,1.989,1.989,0,0,0-.324,1.271,1.912,1.912,0,0,0,.534,1.385,2.093,2.093,0,0,0,1.165.506,3.26,3.26,0,0,0,1.031.014c-.044.207-.094.414-.154.617l-.011.032a3.87,3.87,0,0,0-.213,1.077,2.316,2.316,0,0,0,.3,1.176,2.578,2.578,0,0,0,1.038,1.03,3.142,3.142,0,0,0,1.08.355,3.681,3.681,0,0,0,1.171-.028,2.713,2.713,0,0,0,.97-.386,2.258,2.258,0,0,0,.634-.619,2.471,2.471,0,0,0,.414-1.4,2.439,2.439,0,0,0-.329-1.3Z" transform="translate(-312.589 -350.127)" fill="#006a9f"/>
    <path id="Path_21" data-name="Path 21" d="M407.485,383.162a2.046,2.046,0,0,0,.767-.675,1.773,1.773,0,0,0-.033-1.819,2.152,2.152,0,0,0-.588-.7,2.341,2.341,0,0,0-.776-.394,2.649,2.649,0,0,0-1.753.079,2.115,2.115,0,0,0-1.041.845,1.993,1.993,0,0,0-.318.8,1.816,1.816,0,0,0-.033.307c-.007.171,0,.343,0,.514v.036h1.531v-.036a3.715,3.715,0,0,1,.005-.517.609.609,0,0,1,.053-.177.812.812,0,0,1,.415-.4A.772.772,0,0,1,406.4,381a.733.733,0,0,1,.02,1.4,2.458,2.458,0,0,1-.79.165l-.032,0v1.357h.036a2.169,2.169,0,0,1,1.317.373,1.1,1.1,0,0,1,.12,1.679,1.255,1.255,0,0,1-1.651.041,1.474,1.474,0,0,1-.414-.892l-.006-.029H403.45l0,.037a2.785,2.785,0,0,0,.8,1.916,2.962,2.962,0,0,0,3.9-.042,2.416,2.416,0,0,0,.791-1.827,2.054,2.054,0,0,0-.411-1.278,2.131,2.131,0,0,0-1.053-.735" transform="translate(-339.533 -350.167)" fill="#006a9f"/>
    <path id="Path_22" data-name="Path 22" d="M421.027,380a2.536,2.536,0,0,0-3.619.191,3.787,3.787,0,0,0-.631,2.536v2.564a5.66,5.66,0,0,0,.314,1.711l.021.069c.069.218.148.432.235.643l.031.071h1.807l-.058-.106c-.1-.2-.2-.394-.288-.6l-.047-.114a4.244,4.244,0,0,1-.355-1.652v-.75h0V382.3a1.619,1.619,0,0,1,.347-1.188.808.808,0,0,1,1.015-.059,1.752,1.752,0,0,1,.391,1.445v1.4h1.666v-1.4a1.745,1.745,0,0,1,.393-1.445.808.808,0,0,1,1.016.059,1.616,1.616,0,0,1,.347,1.188v3.012a4.285,4.285,0,0,1-.355,1.652l-.049.114c-.085.2-.184.4-.288.6l-.058.106h1.808l.03-.071c.087-.212.167-.425.235-.643l.022-.069a5.66,5.66,0,0,0,.314-1.711v-.728h.005v-1.836a3.794,3.794,0,0,0-.633-2.536,2.537,2.537,0,0,0-3.619-.191" transform="translate(-345.419 -350.109)" fill="#006a9f"/>
  </g>
</svg>
