<svg xmlns="http://www.w3.org/2000/svg" xmlns:xlink="http://www.w3.org/1999/xlink" width="35" height="41.001" viewBox="0 0 35 41.001">
  <defs>
    <filter id="Subtraction_10" x="0" y="0" width="35" height="41.001" filterUnits="userSpaceOnUse">
      <feOffset dy="3" input="SourceAlpha"/>
      <feGaussianBlur stdDeviation="3" result="blur"/>
      <feFlood flood-opacity="0.161"/>
      <feComposite operator="in" in2="blur"/>
      <feComposite in="SourceGraphic"/>
    </filter>
    <filter id="Path_262" x="11.801" y="0.327" width="23.199" height="23.152" filterUnits="userSpaceOnUse">
      <feOffset dy="3" input="SourceAlpha"/>
      <feGaussianBlur stdDeviation="3" result="blur-2"/>
      <feFlood flood-opacity="0.161"/>
      <feComposite operator="in" in2="blur-2"/>
      <feComposite in="SourceGraphic"/>
    </filter>
  </defs>
  <g id="Group_240" data-name="Group 240" transform="translate(-769.999 -2273.999)">
    <g transform="matrix(1, 0, 0, 1, 770, 2274)" filter="url(#Subtraction_10)">
      <g id="Subtraction_10-2" data-name="Subtraction 10" transform="translate(9 6)" fill="#f2f2f2">
        <path d="M 15.00029563903809 22.50040054321289 L 2.000695705413818 22.50040054321289 C 1.173205733299255 22.50040054321289 0.4999957680702209 21.82759094238281 0.4999957680702209 21.00060081481934 L 0.4999957680702209 1.999800086021423 C 0.4999957680702209 1.17231011390686 1.173205733299255 0.4991001486778259 2.000695705413818 0.4991001486778259 L 11.97348880767822 0.4991001486778259 L 16.50009536743164 5.399393558502197 L 16.50009536743164 21.00060081481934 C 16.50009536743164 21.82759094238281 15.82728576660156 22.50040054321289 15.00029563903809 22.50040054321289 Z" stroke="none"/>
        <path d="M 15.00029563903809 22.00040054321289 C 15.55158615112305 22.00040054321289 16.00009536743164 21.55188941955566 16.00009536743164 21.00060081481934 L 16.00009536743164 5.594987392425537 L 11.75468158721924 0.9991001486778259 L 2.000695705413818 0.9991001486778259 C 1.448905825614929 0.9991001486778259 0.9999957680702209 1.448010087013245 0.9999957680702209 1.999800086021423 L 0.9999957680702209 21.00060081481934 C 0.9999957680702209 21.55188941955566 1.448905825614929 22.00040054321289 2.000695705413818 22.00040054321289 L 15.00029563903809 22.00040054321289 M 15.00029563903809 23.00040054321289 L 2.000695705413818 23.00040054321289 C 0.8975057601928711 23.00040054321289 -4.223632913635811e-06 22.10329055786133 -4.223632913635811e-06 21.00060081481934 L -4.223632913635811e-06 1.999800086021423 C -4.223632913635811e-06 0.8966101408004761 0.8975057601928711 -0.0008998626726679504 2.000695705413818 -0.0008998626726679504 L 12.19229602813721 -0.0008998626726679504 L 17.00009536743164 5.203800201416016 L 17.00009536743164 21.00060081481934 C 17.00009536743164 22.10329055786133 16.10298538208008 23.00040054321289 15.00029563903809 23.00040054321289 Z" stroke="none" fill="#d0d0d0"/>
      </g>
    </g>
    <rect id="Rectangle_840" data-name="Rectangle 840" width="4" height="8" rx="1" transform="translate(782.999 2291)" fill="#006a9f"/>
    <rect id="Rectangle_841" data-name="Rectangle 841" width="4" height="12" rx="1" transform="translate(787.999 2287)" fill="#006a9f"/>
    <g transform="matrix(1, 0, 0, 1, 770, 2274)" filter="url(#Path_262)">
      <path id="Path_262-2" data-name="Path 262" d="M0,0,5.2,5.152H0Z" transform="translate(20.8 6.33)" fill="#d0d0d0"/>
    </g>
  </g>
</svg>
