<svg xmlns="http://www.w3.org/2000/svg" width="34" height="34" viewBox="0 0 34 34">
  <g id="Group_282" data-name="Group 282" transform="translate(-278 -513)">
    <circle id="Ellipse_40" data-name="Ellipse 40" cx="17" cy="17" r="17" transform="translate(278 513)" fill="#ee303c"/>
    <g id="call_black_24dp" transform="translate(283 518)">
      <path id="Path_274" data-name="Path 274" d="M0,0H24V24H0Z" fill="none"/>
      <path id="Path_275" data-name="Path 275" d="M20.01,15.38a11.443,11.443,0,0,1-3.53-.56.977.977,0,0,0-1.01.24L13.9,17.03A15.183,15.183,0,0,1,7.01,10.2L8.96,8.54A1.021,1.021,0,0,0,9.2,7.52a11.153,11.153,0,0,1-.56-3.53A1,1,0,0,0,7.65,3H4.19C3.65,3,3,3.24,3,3.99A17.152,17.152,0,0,0,20.01,21,1.049,1.049,0,0,0,21,19.82V16.37a1,1,0,0,0-.99-.99Z" fill="#fff"/>
    </g>
  </g>
</svg>
